<svg width="32" height="32" viewBox="0 0 32 32" fill="none" xmlns="http://www.w3.org/2000/svg">
<path d="M30.7479 26.171C32.4174 19.4931 32.4174 12.5069 30.7479 5.82904C30.1845 3.57528 28.4247 1.81554 26.171 1.2521C19.4931 -0.417367 12.5069 -0.417368 5.82904 1.2521C3.57528 1.81554 1.81554 3.57528 1.2521 5.82904C-0.417368 12.5069 -0.417367 19.4931 1.2521 26.171C1.81554 28.4247 3.57528 30.1845 5.82904 30.7479C12.5069 32.4174 19.4931 32.4174 26.171 30.7479C28.4247 30.1845 30.1845 28.4247 30.7479 26.171Z" fill="#6C00DB"/>
<path d="M26.0215 13.0565C26.0195 11.2798 25.348 9.5691 24.141 8.26531C22.9339 6.96152 21.28 6.16041 19.5087 6.0216C17.7374 5.8828 15.9788 6.41651 14.5834 7.51637C13.188 8.61622 12.2583 10.2015 11.9795 11.9562C12.3427 11.8913 12.7109 11.8579 13.0798 11.8562C14.0097 11.8545 14.9308 12.0364 15.7902 12.3915C16.6496 12.7466 17.4304 13.2679 18.0879 13.9254C18.7454 14.5829 19.2667 15.3637 19.6218 16.2231C19.9768 17.0825 20.1588 18.0036 20.1571 18.9334C20.1554 19.3024 20.122 19.6706 20.0571 20.0338C21.7204 19.7741 23.236 18.928 24.3298 17.6484C25.4237 16.3687 26.0238 14.74 26.0215 13.0565Z" fill="white"/>
<path d="M11.866 13.0567C11.8677 12.6877 11.9011 12.3196 11.966 11.9564C10.6784 12.1591 9.472 12.7141 8.48026 13.5599C7.48853 14.4058 6.75013 15.5095 6.34677 16.749C5.94342 17.9884 5.89083 19.3153 6.19482 20.5828C6.49882 21.8503 7.14755 23.009 8.06923 23.9307C8.99091 24.8524 10.1496 25.5011 11.4171 25.8051C12.6846 26.1091 14.0115 26.0565 15.251 25.6532C16.4905 25.2498 17.5942 24.5114 18.4401 23.5197C19.2859 22.528 19.8409 21.3216 20.0436 20.034C19.6804 20.0988 19.3122 20.1323 18.9433 20.134C18.0134 20.1356 17.0924 19.9537 16.233 19.5986C15.3736 19.2435 14.5927 18.7223 13.9352 18.0648C13.2777 17.4073 12.7564 16.6264 12.4013 15.767C12.0463 14.9076 11.8643 13.9866 11.866 13.0567Z" fill="white"/>
</svg>