<svg width="24" height="24" viewBox="0 0 24 24" fill="none" xmlns="http://www.w3.org/2000/svg">
<path d="M23.0609 19.6282C24.313 14.6198 24.313 9.38019 23.0609 4.37178C22.6383 2.68146 21.3185 1.36166 19.6282 0.939077C14.6198 -0.313026 9.38019 -0.313026 4.37178 0.939076C2.68146 1.36166 1.36166 2.68146 0.939076 4.37178C-0.313026 9.38019 -0.313026 14.6198 0.939077 19.6282C1.36166 21.3185 2.68146 22.6383 4.37178 23.0609C9.38019 24.313 14.6198 24.313 19.6282 23.0609C21.3185 22.6383 22.6383 21.3185 23.0609 19.6282Z" fill="#F4AE2A"/>
<path d="M23.0609 19.6282C24.313 14.6198 24.313 9.38019 23.0609 4.37178C22.6383 2.68146 21.3185 1.36166 19.6282 0.939077C14.6198 -0.313026 9.38019 -0.313026 4.37178 0.939076C2.68146 1.36166 1.36166 2.68146 0.939076 4.37178C-0.313026 9.38019 -0.313026 14.6198 0.939077 19.6282C1.36166 21.3185 2.68146 22.6383 4.37178 23.0609C9.38019 24.313 14.6198 24.313 19.6282 23.0609C21.3185 22.6383 22.6383 21.3185 23.0609 19.6282Z" fill="#F4AE2A"/>
<path fill-rule="evenodd" clip-rule="evenodd" d="M7.25 6.75C6.14543 6.75 5.25 7.64543 5.25 8.75V14.2C5.25 15.3046 6.14543 16.2 7.25 16.2H12.1541L15.0192 19.8018C15.1371 19.9499 15.3757 19.8666 15.3757 19.6773V16.2H16.75C17.8546 16.2 18.75 15.3046 18.75 14.2V8.75C18.75 7.64543 17.8546 6.75 16.75 6.75H7.25Z" fill="white"/>
<g clip-path="url(#clip0)">
<path d="M12 0C14.4 0 16.9 0.3 19.3 0.8C21.3 1.3 22.6 2.5 23.1 4.5C24.3 9.5 24.3 14.5 23 19.5C22.5 21.4 21.2 22.6 19.4 23C14.5 24.2 9.60001 24.2 4.70001 23C2.60001 22.5 1.30001 21.2 0.800006 19.1C-0.299994 14.2 -0.299994 9.4 0.800006 4.6C1.30001 2.5 2.60001 1.2 4.70001 0.7C7.10001 0.3 9.60001 0 12 0Z" fill="#F4AE2A"/>
<path d="M12.8167 10.0167C12.5833 9.9 12.35 9.9 12 9.9C10.8333 9.9 9.78333 10.8333 9.78333 12.1167C9.78333 13.4 10.7167 14.3333 12 14.3333C13.2833 14.3333 14.2167 13.4 14.2167 12.1167C14.2167 11.8833 14.2167 11.5333 14.1 11.3L16.6667 8.73333L17.95 8.5L19 7.1L17.1333 6.86667L16.9 5L15.5 5.93333L15.15 7.56667L12.8167 10.0167Z" fill="white"/>
<path d="M17.0167 10.4833C17.1333 10.95 17.25 11.4167 17.25 12C17.25 14.9167 14.9167 17.25 12 17.25C9.08333 17.25 6.75 14.9167 6.75 12C6.75 9.08333 9.08333 6.75 12 6.75C12.4667 6.75 12.9333 6.86667 13.4 6.98333L13.75 5.23333C13.1667 5.11667 12.5833 5 12 5C8.15 5 5 8.15 5 12C5 15.85 8.15 19 12 19C15.85 19 19 15.85 19 12C19 11.3 18.8833 10.7167 18.7667 10.0167L17.0167 10.4833Z" fill="white"/>
</g>
<defs>
<clipPath id="clip0">
<rect width="24" height="24" fill="white"/>
</clipPath>
</defs>
</svg>