<svg width="32" height="32" viewBox="0 0 32 32" fill="none" xmlns="http://www.w3.org/2000/svg">
<path d="M30.7479 26.171C32.4174 19.4931 32.4174 12.5069 30.7479 5.82904C30.1845 3.57528 28.4247 1.81554 26.171 1.2521C19.4931 -0.417367 12.5069 -0.417368 5.82904 1.2521C3.57528 1.81554 1.81554 3.57528 1.2521 5.82904C-0.417368 12.5069 -0.417367 19.4931 1.2521 26.171C1.81554 28.4247 3.57528 30.1845 5.82904 30.7479C12.5069 32.4174 19.4931 32.4174 26.171 30.7479C28.4247 30.1845 30.1845 28.4247 30.7479 26.171Z" fill="#FF4B11"/>
<path d="M14.4656 8.62191C12.9138 8.76596 11.4351 9.3489 10.2025 10.3025C8.96985 11.2562 8.03424 12.5411 7.50509 14.007C6.97594 15.4729 6.87514 17.0591 7.21447 18.5802C7.5538 20.1013 8.31923 21.4943 9.42123 22.5963C10.5232 23.6983 11.9163 24.4637 13.4373 24.8031C14.9584 25.1424 16.5447 25.0416 18.0106 24.5125C19.4764 23.9833 20.7614 23.0477 21.715 21.8151C22.6686 20.5824 23.2516 19.1037 23.3956 17.5519C23.4005 17.453 23.385 17.3541 23.3501 17.2613C23.3152 17.1686 23.2616 17.084 23.1927 17.0129C23.1237 16.9417 23.0409 16.8855 22.9494 16.8476C22.8578 16.8098 22.7594 16.7912 22.6604 16.7929H15.948C15.7562 16.7929 15.5722 16.7167 15.4365 16.581C15.3008 16.4454 15.2246 16.2614 15.2246 16.0695V9.35719C15.2264 9.25812 15.2077 9.15976 15.1699 9.06819C15.1321 8.97662 15.0758 8.8938 15.0047 8.82486C14.9335 8.75592 14.8489 8.70234 14.7562 8.66743C14.6635 8.63252 14.5646 8.61703 14.4656 8.62191Z" fill="white"/>
<path d="M17.8594 6.72428V13.4366C17.8625 13.6295 17.9413 13.8135 18.0789 13.9489C18.2164 14.0842 18.4017 14.16 18.5946 14.16H25.2951C25.3947 14.1601 25.4933 14.14 25.585 14.1008C25.6766 14.0617 25.7593 14.0043 25.828 13.9322C25.8968 13.8601 25.9502 13.7748 25.985 13.6815C26.0198 13.5881 26.0352 13.4887 26.0304 13.3892C25.8463 11.4901 25.0072 9.71429 23.6569 8.36624C22.3067 7.0182 20.5296 6.18193 18.6302 6.00087C18.5317 5.99608 18.4332 6.01117 18.3407 6.04523C18.2481 6.07929 18.1633 6.13162 18.0914 6.19912C18.0195 6.26662 17.9619 6.3479 17.922 6.43812C17.8822 6.52834 17.8608 6.62565 17.8594 6.72428Z" fill="white"/>
</svg>