<svg width="18" height="18" viewBox="0 0 18 18" fill="none" xmlns="http://www.w3.org/2000/svg">
<g clip-path="url(#clip0)">
<path d="M8.99435 -0.00546001C10.8295 -0.00721168 12.6586 0.204204 14.445 0.624539C15.1473 0.753909 15.7946 1.09115 16.3031 1.5926C16.8115 2.09404 17.1577 2.73659 17.2968 3.43704C18.2102 7.13284 18.1987 10.9968 17.2631 14.687C17.1191 15.3452 16.7838 15.9462 16.2995 16.4145C15.8151 16.8829 15.2032 17.1977 14.5406 17.3195C10.9144 18.183 7.13616 18.183 3.50997 17.3195C2.78723 17.183 2.12329 16.8293 1.60672 16.3057C1.09015 15.7821 0.745494 15.1134 0.618724 14.3889C-0.241886 10.8042 -0.241886 7.06674 0.618724 3.48204C0.754785 2.76014 1.1058 2.0962 1.62575 1.57725C2.14569 1.05831 2.81031 0.708579 3.53247 0.573914C5.32505 0.173159 7.15759 -0.0212293 8.99435 -0.00546001Z" fill="#16DBDB"/>
<path d="M13.4944 8.22951C13.4951 7.97198 13.445 7.71683 13.347 7.47868C13.249 7.24054 13.1049 7.02408 12.923 6.84171C12.7412 6.65935 12.5252 6.51465 12.2873 6.41593C12.0494 6.3172 11.7944 6.26639 11.5369 6.26639C11.1561 6.26621 10.7802 6.35214 10.4374 6.51773C10.0945 6.68332 9.79349 6.9243 9.55689 7.22264C9.55204 6.89193 9.6285 6.56509 9.77954 6.27085C9.93059 5.97661 10.1516 5.72397 10.4231 5.53514L10.1531 5.05701L9.88314 4.56201C9.52991 4.78115 9.22703 5.07253 8.99439 5.41701C8.76174 5.07253 8.45886 4.78115 8.10564 4.56201L7.54314 5.54639C7.81468 5.73522 8.03568 5.98786 8.18673 6.2821C8.33777 6.57634 8.41423 6.90318 8.40939 7.23389C8.17337 6.93629 7.87328 6.69577 7.53144 6.5302C7.18961 6.36464 6.81483 6.27831 6.43501 6.27764C5.91975 6.28208 5.42703 6.4895 5.06372 6.85491C4.70042 7.22032 4.49585 7.71424 4.49439 8.22951C4.4889 8.78199 4.66474 9.32102 4.99494 9.764C5.32514 10.207 5.79149 10.5295 6.32251 10.682C6.12348 10.8523 5.96363 11.0637 5.85392 11.3015C5.7442 11.5394 5.68722 11.7982 5.68689 12.0601C5.68689 12.448 5.84097 12.82 6.11524 13.0943C6.38952 13.3686 6.76151 13.5226 7.14939 13.5226H7.34064C7.5602 13.5227 7.77757 13.479 7.98006 13.3941C8.18256 13.3093 8.36613 13.1849 8.52007 13.0284C8.67401 12.8718 8.79523 12.6862 8.87667 12.4823C8.9581 12.2784 8.99812 12.0603 8.99439 11.8408C8.99439 12.2794 9.16862 12.7 9.47876 13.0101C9.7889 13.3203 10.2095 13.4945 10.6481 13.4945H10.8394C11.2273 13.4945 11.5993 13.3404 11.8735 13.0662C12.1478 12.7919 12.3019 12.4199 12.3019 12.032C12.2975 11.7748 12.2386 11.5215 12.1291 11.2887C12.0195 11.056 11.8617 10.8492 11.6663 10.682C12.1973 10.5295 12.6636 10.207 12.9938 9.764C13.324 9.32102 13.4999 8.78199 13.4944 8.22951ZM5.92876 8.51639C5.92876 8.35507 5.9766 8.19738 6.06622 8.06325C6.15584 7.92912 6.28323 7.82458 6.43226 7.76285C6.5813 7.70112 6.74529 7.68496 6.90351 7.71643C7.06172 7.7479 7.20705 7.82559 7.32112 7.93965C7.43519 8.05372 7.51287 8.19905 7.54434 8.35727C7.57581 8.51548 7.55966 8.67948 7.49793 8.82851C7.43619 8.97755 7.33165 9.10493 7.19752 9.19456C7.0634 9.28418 6.9057 9.33201 6.74439 9.33201C6.63728 9.33201 6.53122 9.31091 6.43226 9.26993C6.33331 9.22894 6.24339 9.16886 6.16765 9.09312C6.09191 9.01738 6.03184 8.92747 5.99085 8.82851C5.94986 8.72956 5.92876 8.6235 5.92876 8.51639ZM7.34064 12.3358C7.24274 12.3358 7.14703 12.3067 7.06563 12.2523C6.98423 12.1979 6.92078 12.1206 6.88332 12.0302C6.84585 11.9397 6.83605 11.8402 6.85515 11.7442C6.87425 11.6482 6.92139 11.56 6.99062 11.4907C7.05985 11.4215 7.14805 11.3744 7.24407 11.3553C7.34009 11.3362 7.43962 11.346 7.53007 11.3834C7.62052 11.4209 7.69782 11.4844 7.75222 11.5658C7.80661 11.6472 7.83564 11.7429 7.83564 11.8408C7.83564 11.972 7.78349 12.0979 7.69066 12.1908C7.59783 12.2836 7.47192 12.3358 7.34064 12.3358ZM10.6481 12.3358C10.5169 12.3358 10.3909 12.2836 10.2981 12.1908C10.2053 12.0979 10.1531 11.972 10.1531 11.8408C10.1531 11.7095 10.2053 11.5836 10.2981 11.4907C10.3909 11.3979 10.5169 11.3458 10.6481 11.3458C10.7794 11.3458 10.9053 11.3979 10.9982 11.4907C11.091 11.5836 11.1431 11.7095 11.1431 11.8408C11.1431 11.972 11.091 12.0979 10.9982 12.1908C10.9053 12.2836 10.7794 12.3358 10.6481 12.3358ZM11.2444 9.33201C11.0831 9.33201 10.9254 9.28418 10.7913 9.19456C10.6571 9.10493 10.5526 8.97755 10.4908 8.82851C10.4291 8.67948 10.413 8.51548 10.4444 8.35727C10.4759 8.19905 10.5536 8.05372 10.6677 7.93965C10.7817 7.82559 10.927 7.7479 11.0853 7.71643C11.2435 7.68496 11.4075 7.70112 11.5565 7.76285C11.7055 7.82458 11.8329 7.92912 11.9226 8.06325C12.0122 8.19738 12.06 8.35507 12.06 8.51639C12.06 8.6235 12.0389 8.72956 11.9979 8.82851C11.9569 8.92747 11.8969 9.01738 11.8211 9.09312C11.7454 9.16886 11.6555 9.22894 11.5565 9.26993C11.4576 9.31091 11.3515 9.33201 11.2444 9.33201Z" fill="white"/>
</g>
<defs>
<clipPath id="clip0">
<rect width="18" height="18" fill="white"/>
</clipPath>
</defs>
</svg>
